# xmcd CD database file
#
# Track frame offsets:
#	150
#	16348
#	31795
#	47098
#	61809
#	77032
#	90035
#	104777
#	119422
#	134189
#	149354
#	163511
#	180248
#	193158
#	204508
#	219966
#	232983
#	246647
#	260327
#	275908
#
# Disc length: 3850 seconds
#
# Revision: 0
# Processed by: cddbd v1.5.2PL0 Copyright (c) Steve Scherf et al.
# Submitted via: CDex 1.51
#
DISCID=200f0814
DTITLE=Glenn Miller - On the Sentimental Side
DYEAR=2001
DGENRE=Jazz
TTITLE0=In the Mood
TTITLE1=Chattanooga Choo Choo
TTITLE2=Moonlight Serenade
TTITLE3=Pennsylvania 6-5000
TTITLE4=Stardust
TTITLE5=Little Brown Jug
TTITLE6=Danny Boy
TTITLE7=A String of Pearls
TTITLE8=(I've got a girl in) Kalamazoo
TTITLE9=American Patrol
TTITLE10=At Last
TTITLE11=A Nightingale Sang in Berkeley Square
TTITLE12=Stairway to the Stars
TTITLE13=Over the Rainbow
TTITLE14=Take the 'A' Train
TTITLE15=When You Wish Upon a Star
TTITLE16=That Old Black Magic
TTITLE17=Rhapsody in Blue
TTITLE18=Begin the Beguine
TTITLE19=White Cliffs of Dover
EXTD=YEAR: 2001
EXTT0=
EXTT1=
EXTT2=
EXTT3=
EXTT4=
EXTT5=
EXTT6=
EXTT7=
EXTT8=
EXTT9=
EXTT10=
EXTT11=
EXTT12=
EXTT13=
EXTT14=
EXTT15=
EXTT16=
EXTT17=
EXTT18=
EXTT19=
PLAYORDER=
